<?xml version="1.0" encoding="UTF-8" standalone="no"?>
<!-- Created with Inkscape (http://www.inkscape.org/) -->

<svg
   version="1.1"
   id="svg1"
   width="600"
   height="600"
   viewBox="0 0 600 600"
   sodipodi:docname="skull.svg"
   inkscape:version="1.4.3 (0d15f75, 2025-12-25)"
   xml:space="preserve"
   xmlns:inkscape="http://www.inkscape.org/namespaces/inkscape"
   xmlns:sodipodi="http://sodipodi.sourceforge.net/DTD/sodipodi-0.dtd"
   xmlns="http://www.w3.org/2000/svg"
   xmlns:svg="http://www.w3.org/2000/svg"><defs
     id="defs1"><inkscape:path-effect
       effect="spiro"
       id="path-effect8"
       is_visible="true"
       lpeversion="1" /><inkscape:path-effect
       effect="spiro"
       id="path-effect7"
       is_visible="true"
       lpeversion="1" /><inkscape:path-effect
       effect="spiro"
       id="path-effect5"
       is_visible="true"
       lpeversion="1" /><inkscape:path-effect
       effect="spiro"
       id="path-effect4"
       is_visible="true"
       lpeversion="1" /><inkscape:path-effect
       effect="spiro"
       id="path-effect2"
       is_visible="true"
       lpeversion="1" /><inkscape:path-effect
       effect="spiro"
       id="path-effect3"
       is_visible="true"
       lpeversion="1" /><inkscape:path-effect
       effect="spiro"
       id="path-effect1"
       is_visible="true"
       lpeversion="1" /></defs><sodipodi:namedview
     id="namedview1"
     pagecolor="#ffffff"
     bordercolor="#000000"
     borderopacity="0.25"
     inkscape:showpageshadow="2"
     inkscape:pageopacity="0.0"
     inkscape:pagecheckerboard="0"
     inkscape:deskcolor="#d1d1d1"
     inkscape:zoom="1"
     inkscape:cx="-563.5"
     inkscape:cy="470.5"
     inkscape:window-width="3840"
     inkscape:window-height="2054"
     inkscape:window-x="-11"
     inkscape:window-y="-11"
     inkscape:window-maximized="1"
     inkscape:current-layer="g1"
     showguides="false"><inkscape:page
       x="0"
       y="0"
       width="600"
       height="600"
       id="page2"
       margin="0"
       bleed="0" /></sodipodi:namedview><g
     inkscape:groupmode="layer"
     inkscape:label="Image"
     id="g1"
     style="display:inline"
     transform="matrix(1.1180479,0,0,1.1180479,-36.853311,-26.803702)"><path
       style="display:inline;fill:#1c1c24;stroke-width:1.51456"
       d="m 179.01928,34.404285 c -1.844,1.087546 -3.89229,3.03938 -5.61917,4.36781 C 130.91135,73.893854 86.529944,102.79939 71.145064,165.45395 56.477556,243.31012 88.975985,323.7115 157.39389,337.4074 c 3.37963,0.67653 28.98912,6.83676 26.86578,2.95774 -3.90632,-14.25641 2.76887,-32.21263 6.42984,-48.10708 3.94138,-17.11189 21.88701,-52.89937 30.89078,-58.0829 32.2864,-18.58742 -159.945773,28.38865 -45.63549,-193.99902 1.10325,-1.789374 1.99882,-3.959266 3.07448,-5.771855"
       id="path4-8-2"
       sodipodi:nodetypes="cssscsssc" /><path
       style="display:inline;fill:#1c1c24;stroke-width:1.259"
       d="m 307.14004,291.67249 c 26.91086,1.28773 51.55025,-43.29821 59.17281,-58.54331 0.14128,-0.28256 2.31791,-4.02505 2.51799,-4.09174 0.62568,-0.20857 1.96622,0.48364 2.20324,0.6295 26.893,16.54952 46.89573,94.55403 41.54687,112.68014 -1.61807,1.21355 -3.29764,1.60336 -5.12817,2.18579 -25.95998,9.38435 -45.72528,19.75614 -68.36135,34.84686 -3.24664,2.16333 -1.99538,18.91161 -0.6295,21.71768 1.12646,3.37939 1.83946,5.03599 5.98023,5.03599 1.27525,0 3.18749,0.29474 4.40649,-0.31475 21.04147,-13.03239 44.72759,-26.5185 59.20609,-46.98815 1.00026,-1.48 3.28117,-3.88829 5.31745,-5.88969 0.90214,-0.88669 0.69405,4.6355 0.8346,5.16964 0.13345,26.3083 0.0656,13.92794 -1.05388,50.85569 -0.0274,0.90423 -0.9991,7.69762 -1.98396,8.49822 -1.85868,1.51092 -12.75433,6.0437 -14.7932,7.55398 -13.34686,7.79186 -27.37703,19.99378 -33.38178,34.77431 -3.67587,21.86758 -3.23736,44.15964 -3.38303,66.28221 -0.003,1.94086 0.10525,4.96489 -0.88698,6.55246 -10.19151,3.30702 -31.2584,18.5739 -34.58748,19.97209 -0.44016,-3.08114 -2.60047,-10.58693 -2.60047,-13.84623 0,-38.84562 3.68436,-48.90424 -0.38621,-55.87094 -1.74961,-2.99444 -10.88604,-2.12409 -17.62966,-2.09752 -0.60982,-1.89983 -1.88614,-2.93919 -2.21698,-4.93987 4.94067,-61.27345 5.83688,-122.75049 5.83688,-184.17236 z"
       id="path8-1"
       sodipodi:nodetypes="cssssssssssscsssssscsscsc" /><path
       style="display:inline;fill:#1c1c24;stroke-width:1.51456"
       d="m 428.46881,32.221656 c 1.84401,1.087552 3.89229,3.039386 5.61917,4.367815 42.48876,35.121759 86.87017,64.027299 102.25505,126.681849 14.6675,77.85618 -17.83092,158.25755 -86.24883,171.95345 -3.37963,0.67654 -28.98911,6.83677 -26.86578,2.95775 3.90632,-14.25642 -2.76887,-32.21263 -6.42984,-48.10708 -3.94138,-17.1119 -21.88701,-52.89938 -30.89078,-58.0829 -32.2864,-18.58743 159.94577,28.38865 45.6355,-193.999027 -1.10326,-1.789363 -1.99882,-3.959265 -3.07449,-5.771857"
       id="path4-8"
       sodipodi:nodetypes="cssscsssc" /><path
       style="fill:#1c1c24;stroke-width:1.259"
       d="m 300.3876,291.76294 c -26.91086,1.28772 -51.55026,-43.29821 -59.17281,-58.54332 -0.14129,-0.28255 -2.31792,-4.02505 -2.51799,-4.09173 -0.62569,-0.20857 -1.96623,0.48364 -2.20325,0.62949 -26.893,16.54953 -46.89572,94.55404 -41.54687,112.68015 1.61808,1.21354 3.29764,1.60335 5.12817,2.18579 25.95998,9.38434 45.72529,19.75614 68.36136,34.84686 3.24663,2.16333 1.99538,18.9116 0.6295,21.71768 -1.12647,3.37938 -1.83946,5.03598 -5.98024,5.03598 -1.27525,0 -3.18748,0.29475 -4.40648,-0.31475 -21.04148,-13.03238 -44.7276,-26.51849 -59.20609,-46.98815 -1.00026,-1.48 -3.28117,-3.88828 -5.31746,-5.88968 -0.90213,-0.8867 -0.69404,4.6355 -0.8346,5.16964 -0.13344,26.30829 -0.0656,13.92793 1.05388,50.85568 0.0275,0.90424 0.9991,7.69763 1.98397,8.49823 1.85868,1.51092 12.75433,6.04369 14.7932,7.55397 13.34685,7.79187 26.89088,19.9496 32.89564,34.73012 3.67586,21.86758 3.72349,44.20383 3.86917,66.32641 0.003,1.94085 -0.10525,4.96489 0.88698,6.55245 10.1915,3.30702 31.2584,18.57391 34.58747,19.9721 0.44016,-3.08114 2.11434,-10.63113 2.11434,-13.89043 0,-38.84561 -3.68437,-48.90424 0.38621,-55.87093 1.74961,-2.99445 10.91437,-2.17097 17.658,-2.14441 0.60982,-1.89982 1.85779,-2.8923 2.18868,-4.89299 -4.94066,-61.27344 -5.35073,-122.70629 -5.35073,-184.12816 z"
       id="path8"
       sodipodi:nodetypes="cssssssssssscsssssscsscscc" /></g></svg>
